<svg width="50" height="50" viewBox="0 0 50 50" fill="none" xmlns="http://www.w3.org/2000/svg">
<rect width="50" height="50" fill="white"/>
<rect width="50" height="50" fill="white"/>
<mask id="path-2-inside-1" fill="white">
<path fill-rule="evenodd" clip-rule="evenodd" d="M20.0616 10C19.1438 10 18.3439 10.6246 18.1213 11.5149L17 16H5C2.23858 16 0 18.2386 0 21V35C0 37.7614 2.23858 40 5 40H45C47.7614 40 50 37.7614 50 35V21C50 18.2386 47.7614 16 45 16H33L31.8787 11.5149C31.6561 10.6246 30.8562 10 29.9384 10H20.0616Z"/>
</mask>
<path d="M18.1213 11.5149L16.181 11.0299V11.0299L18.1213 11.5149ZM17 16V18H18.5616L18.9403 16.4851L17 16ZM33 16L31.0597 16.4851L31.4384 18H33V16ZM31.8787 11.5149L33.819 11.0299V11.0299L31.8787 11.5149ZM20.0616 12V12V8C18.2261 8 16.6262 9.24919 16.181 11.0299L20.0616 12ZM18.9403 16.4851L20.0616 12L16.181 11.0299L15.0597 15.5149L18.9403 16.4851ZM5 18H17V14H5V18ZM2 21C2 19.3431 3.34315 18 5 18V14C1.13401 14 -2 17.134 -2 21H2ZM2 35V21H-2V35H2ZM5 38C3.34315 38 2 36.6569 2 35H-2C-2 38.866 1.13401 42 5 42V38ZM45 38H5V42H45V38ZM48 35C48 36.6569 46.6569 38 45 38V42C48.866 42 52 38.866 52 35H48ZM48 21V35H52V21H48ZM45 18C46.6569 18 48 19.3431 48 21H52C52 17.134 48.866 14 45 14V18ZM33 18H45V14H33V18ZM29.9384 12L31.0597 16.4851L34.9403 15.5149L33.819 11.0299L29.9384 12ZM29.9384 12V12L33.819 11.0299C33.3739 9.24919 31.7739 8 29.9384 8V12ZM20.0616 12H29.9384V8H20.0616V12Z" fill="#22283D" mask="url(#path-2-inside-1)"/>
<circle cx="26" cy="27" r="6" stroke="#00B6FF" stroke-width="2" stroke-linejoin="bevel"/>
<line x1="40" y1="21" x2="45" y2="21" stroke="#4C5052" stroke-width="2" stroke-linecap="round"/>
</svg>
