<svg width="50" height="50" viewBox="0 0 50 50" fill="none" xmlns="http://www.w3.org/2000/svg">
<rect width="50" height="50" fill="white"/>
<rect width="50" height="50" fill="white"/>
<path d="M35.5 12.766C35.5 16.1093 34.1906 25.2785 32.0327 33.6526C30.9563 37.83 29.6931 41.7099 28.3231 44.5154C27.6354 45.9237 26.9583 46.9822 26.3205 47.6672C25.6685 48.3676 25.2293 48.5 25 48.5C24.7707 48.5 24.3315 48.3676 23.6795 47.6672C23.0417 46.9822 22.3646 45.9237 21.6769 44.5154C20.3069 41.7099 19.0437 37.83 17.9673 33.6526C15.8094 25.2785 14.5 16.1093 14.5 12.766C14.5 6.45515 19.2871 1.5 25 1.5C30.7129 1.5 35.5 6.45515 35.5 12.766Z" stroke="#22283D" stroke-width="3" stroke-linejoin="bevel"/>
<circle cx="25" cy="14" r="3.5" stroke="#00B6FF" stroke-linejoin="bevel"/>
</svg>
