<svg width="30" height="30" viewBox="0 0 54 51" fill="none" xmlns="http://www.w3.org/2000/svg">
<path d="M24.1468 2.78115C25.0449 0.0172167 28.9551 0.0172205 29.8532 2.78115L33.9599 15.4205C34.3616 16.6565 35.5134 17.4934 36.8131 17.4934L50.1029 17.4934C53.009 17.4934 54.2174 21.2123 51.8662 22.9205L41.1146 30.732C40.0631 31.4959 39.6231 32.85 40.0248 34.0861L44.1315 46.7254C45.0296 49.4894 41.8661 51.7877 39.515 50.0795L28.7634 42.268C27.7119 41.5041 26.2881 41.5041 25.2366 42.268L14.485 50.0795C12.1339 51.7877 8.97041 49.4894 9.86847 46.7254L13.9752 34.0861C14.3769 32.85 13.9369 31.4959 12.8854 30.732L2.13377 22.9205C-0.217371 21.2123 0.990956 17.4934 3.89713 17.4934L17.1869 17.4934C18.4866 17.4934 19.6384 16.6565 20.0401 15.4205L24.1468 2.78115Z" fill="#EEF167"/>
</svg>
