<svg width="32" height="32" viewBox="0 0 32 32" fill="none" xmlns="http://www.w3.org/2000/svg">
<rect width="32" height="32" fill="white"/>
<rect width="32" height="32" fill="#FFFEFE"/>
<path d="M2.5 12C2.5 11.1716 3.17157 10.5 4 10.5H28C28.8284 10.5 29.5 11.1716 29.5 12V22.5H2.5V12Z" fill="white" stroke="#22283D" stroke-linecap="round" stroke-linejoin="round"/>
<path d="M5.5 18C5.5 17.1716 6.17157 16.5 7 16.5H13C13.8284 16.5 14.5 17.1716 14.5 18V21.5H5.5V18Z" fill="#00B6FF" stroke="#22283D" stroke-linecap="round" stroke-linejoin="round"/>
<path d="M17.5 18C17.5 17.1716 18.1716 16.5 19 16.5H25C25.8284 16.5 26.5 17.1716 26.5 18V21.5H17.5V18Z" fill="#00B6FF" stroke="#22283D" stroke-linecap="round" stroke-linejoin="round"/>
<path d="M0.5 21C0.5 20.1716 1.17157 19.5 2 19.5H30C30.8284 19.5 31.5 20.1716 31.5 21V29.5H0.5V21Z" fill="white" stroke="#22283D" stroke-linecap="round" stroke-linejoin="round"/>
<line x1="0.5" y1="28" x2="0.5" y2="32" stroke="#22283D"/>
<line x1="31.5" y1="28" x2="31.5" y2="32" stroke="#22283D"/>
<line x1="1.5" y1="23.5" x2="30.5" y2="23.5" stroke="#22283D" stroke-linecap="round"/>
<line x1="8.5" y1="25.5" x2="22.5" y2="25.5" stroke="#22283D" stroke-linecap="round"/>
</svg>
